<mxfile host="65bd71144e">
    <diagram id="wNAipl-mCaCUU6TmQM-I" name="Page-1">
        <mxGraphModel dx="588" dy="419" grid="1" gridSize="10" guides="1" tooltips="1" connect="1" arrows="1" fold="1" page="1" pageScale="1" pageWidth="850" pageHeight="1100" math="0" shadow="0">
            <root>
                <mxCell id="0"/>
                <mxCell id="1" parent="0"/>
                <mxCell id="8" value="" style="rounded=1;whiteSpace=wrap;html=1;" vertex="1" parent="1">
                    <mxGeometry x="10" y="80" width="170" height="300" as="geometry"/>
                </mxCell>
                <mxCell id="9" value="&lt;font style=&quot;font-size: 19px;&quot;&gt;&lt;b&gt;Herbie&lt;/b&gt;&lt;/font&gt;" style="text;html=1;strokeColor=none;fillColor=none;align=center;verticalAlign=middle;whiteSpace=wrap;rounded=0;" vertex="1" parent="1">
                    <mxGeometry x="65" y="50" width="60" height="30" as="geometry"/>
                </mxCell>
                <mxCell id="11" value=".grib&lt;br&gt;&lt;font style=&quot;font-size: 9px;&quot;&gt;Path/URL to found GRIB file&lt;/font&gt;" style="text;html=1;strokeColor=none;fillColor=none;align=left;verticalAlign=middle;whiteSpace=wrap;rounded=0;" vertex="1" parent="1">
                    <mxGeometry x="20" y="100" width="140" height="30" as="geometry"/>
                </mxCell>
                <mxCell id="12" value=".idx&lt;br&gt;&lt;font style=&quot;font-size: 9px;&quot;&gt;Path/URL to found GRIB index file&lt;/font&gt;" style="text;html=1;strokeColor=none;fillColor=none;align=left;verticalAlign=middle;whiteSpace=wrap;rounded=0;" vertex="1" parent="1">
                    <mxGeometry x="20" y="140" width="140" height="30" as="geometry"/>
                </mxCell>
                <mxCell id="13" value="&lt;b&gt;.inventory()&lt;/b&gt;&lt;br&gt;&lt;font style=&quot;font-size: 9px;&quot;&gt;Dataframe of GRIB contents as enumerated in the index file.&lt;/font&gt;" style="text;html=1;strokeColor=none;fillColor=none;align=left;verticalAlign=middle;whiteSpace=wrap;rounded=0;" vertex="1" parent="1">
                    <mxGeometry x="20" y="180" width="140" height="50" as="geometry"/>
                </mxCell>
                <mxCell id="14" value="&lt;b&gt;.download()&lt;/b&gt;&lt;br&gt;&lt;font style=&quot;font-size: 9px;&quot;&gt;Download the GRIB (and maybe index file) locally.&lt;br&gt;&lt;/font&gt;" style="text;html=1;strokeColor=none;fillColor=none;align=left;verticalAlign=middle;whiteSpace=wrap;rounded=0;" vertex="1" parent="1">
                    <mxGeometry x="20" y="240" width="140" height="50" as="geometry"/>
                </mxCell>
                <mxCell id="15" value="&lt;b&gt;.xarray()&lt;/b&gt;&lt;br&gt;&lt;font style=&quot;font-size: 9px;&quot;&gt;Open the GRIB data in an xarray Dataset using cfgrib.&lt;br&gt;&lt;/font&gt;" style="text;html=1;strokeColor=none;fillColor=none;align=left;verticalAlign=middle;whiteSpace=wrap;rounded=0;" vertex="1" parent="1">
                    <mxGeometry x="20" y="300" width="140" height="50" as="geometry"/>
                </mxCell>
                <mxCell id="16" value="" style="rounded=1;whiteSpace=wrap;html=1;fontSize=19;" vertex="1" parent="1">
                    <mxGeometry x="230" y="80" width="230" height="310" as="geometry"/>
                </mxCell>
                <mxCell id="18" value="&lt;font style=&quot;font-size: 19px;&quot;&gt;&lt;b&gt;Inventory&lt;/b&gt;&lt;/font&gt;" style="text;html=1;strokeColor=none;fillColor=none;align=center;verticalAlign=middle;whiteSpace=wrap;rounded=0;" vertex="1" parent="1">
                    <mxGeometry x="287.5" y="50" width="115" height="30" as="geometry"/>
                </mxCell>
                <mxCell id="19" value="Given an idx Path or URL, read the index file into a Pandas DataFrame.&lt;br&gt;* functions to read ECCODES- or WGRIB2-style index files. (Auto-determine which is used).&lt;br&gt;* Derive the cURL byte ranges total bytes for each GRIB message.&lt;br&gt;* DataFrame Attributes: (1) expected GRIB file size, (2) companion GRIB file" style="text;html=1;strokeColor=none;fillColor=none;align=left;verticalAlign=top;whiteSpace=wrap;rounded=0;fontSize=13;" vertex="1" parent="1">
                    <mxGeometry x="240" y="100" width="210" height="170" as="geometry"/>
                </mxCell>
                <mxCell id="20" value="&lt;b&gt;.filter(searchString)&lt;/b&gt;&lt;br&gt;&lt;font style=&quot;font-size: 9px;&quot;&gt;Filter the DataFrame for the requested content. Also derive download groupings for adjacent variables. Update attribute of expected GRIB file size, and include the searchString as an attribute&lt;/font&gt;" style="text;html=1;strokeColor=none;fillColor=none;align=left;verticalAlign=middle;whiteSpace=wrap;rounded=0;" vertex="1" parent="1">
                    <mxGeometry x="240" y="300" width="210" height="50" as="geometry"/>
                </mxCell>
            </root>
        </mxGraphModel>
    </diagram>
</mxfile>
